<svg width="483" height="314" viewBox="0 0 483 314" fill="none" xmlns="http://www.w3.org/2000/svg">
<g style="mix-blend-mode:overlay" opacity="0.6" clip-path="url(#clip0_87_414)">
<path d="M204.282 253.142C230.797 260.247 257.909 261.948 284.859 258.195C310.895 254.569 335.695 246.037 358.567 232.83C381.44 219.627 401.229 202.415 417.386 181.679C434.113 160.216 446.196 135.887 453.3 109.371C460.406 82.8542 462.106 55.7443 458.352 28.7921C454.728 2.75574 446.195 -22.0426 432.988 -44.9132C419.784 -67.7857 402.572 -87.5756 381.838 -103.733C360.374 -120.459 336.044 -132.544 309.53 -139.649C283.015 -146.753 255.902 -148.452 228.952 -144.699C202.914 -141.074 178.116 -132.541 155.245 -119.334C132.372 -106.131 112.582 -88.9219 96.4254 -68.1859C79.6994 -46.7214 67.6151 -22.3937 60.5099 4.12319C53.405 30.639 51.7062 57.7506 55.4594 84.7014C59.0837 110.738 67.6165 135.538 80.8238 158.409C94.0269 181.282 111.236 201.071 131.973 217.229C153.437 233.955 177.767 246.037 204.282 253.142ZM202.578 259.502C90.5986 229.498 24.1459 114.398 54.1506 2.41921C84.155 -109.559 199.255 -176.013 311.234 -146.008C423.213 -116.003 489.665 -0.902585 459.661 111.075C429.656 223.054 314.557 289.507 202.578 259.502Z" fill="white"/>
<path d="M206.405 245.217C231.85 252.035 257.865 253.665 283.734 250.065C308.721 246.584 332.518 238.396 354.465 225.724C376.413 213.053 395.402 196.54 410.909 176.641C426.959 156.039 438.557 132.691 445.374 107.249C452.192 81.8035 453.822 55.7879 450.223 29.9199C446.743 4.93309 438.555 -18.8645 425.883 -40.8112C413.213 -62.7587 396.698 -81.7498 376.798 -97.2556C356.196 -113.308 332.851 -124.905 307.406 -131.723C281.961 -138.541 255.945 -140.17 230.076 -136.57C205.091 -133.091 181.293 -124.901 159.345 -112.23C137.398 -99.5593 118.408 -83.0441 102.901 -63.1447C86.8482 -42.5424 75.2524 -19.1972 68.4344 6.24787C61.617 31.6907 59.9861 57.7083 63.587 83.5768C67.067 108.563 75.2558 132.358 87.9273 154.306C100.599 176.254 117.114 195.244 137.012 210.751C157.615 226.803 180.96 238.399 206.405 245.217ZM205.837 247.338C100.577 219.134 38.1107 110.94 66.315 5.67997C94.5193 -99.5799 202.714 -162.046 307.973 -133.842C413.233 -105.637 475.699 2.55697 447.495 107.817C419.291 213.077 311.096 275.543 205.837 247.338Z" fill="white"/>
<path d="M141.064 -4.29551L130.447 18.991L121.904 15.0956L131.833 -6.68283C132.292 -7.68876 132.268 -8.67046 131.76 -9.63103C131.312 -10.4811 130.575 -11.141 129.547 -11.6099C128.541 -12.0681 127.599 -12.1884 126.717 -11.9695C125.714 -11.7241 124.973 -11.078 124.495 -10.0279L114.566 11.7505L105.452 7.59488L115.382 -14.1835C115.85 -15.2114 115.863 -16.1635 115.417 -17.0412C114.969 -17.9184 114.269 -18.5754 113.313 -19.011C112.29 -19.4784 111.313 -19.5987 110.38 -19.3781C109.326 -19.1297 108.57 -18.5019 108.113 -17.4982L98.1816 4.27857L89.5388 0.338677L100.154 -22.9473C101.733 -26.4104 104.34 -28.5815 107.972 -29.46C111.27 -30.2487 114.601 -29.8774 117.968 -28.342C119.461 -27.66 120.777 -26.7978 121.917 -25.7528C123.057 -24.7056 123.936 -23.5299 124.552 -22.2257C126 -22.5606 127.488 -22.6301 129.018 -22.4349C130.546 -22.2365 132.07 -21.7906 133.588 -21.0982C136.94 -19.5703 139.376 -17.3406 140.897 -14.4079C142.597 -11.1502 142.654 -7.77947 141.064 -4.29551ZM160.125 -31.3936C156.363 -27.152 152.319 -24.734 147.991 -24.1411C144.594 -23.6749 141.097 -24.316 137.499 -26.063C135.136 -27.2057 132.845 -28.7619 130.624 -30.7312C130.111 -31.1869 129.753 -31.513 129.548 -31.7082C129.346 -31.9061 129.179 -32.0949 129.045 -32.2782L113.244 -46.2894L119.841 -53.7285L135.638 -39.7207C138.483 -37.1998 141.406 -35.6724 144.41 -35.1422C147.869 -34.5338 150.676 -35.4424 152.825 -37.8694L164.721 -51.2859L172.023 -44.8121L160.125 -31.3936ZM202.141 -63.2354L174.436 -87.0768C174.186 -87.3584 173.871 -87.385 173.49 -87.1593C173.13 -86.9489 172.959 -86.6326 172.976 -86.2164L180.671 -50.568L171.379 -45.0849C170.822 -47.2368 169.802 -51.5649 168.314 -58.0708C166.827 -64.574 165.467 -70.7577 164.235 -76.6124C162.869 -83.1314 162.206 -86.8155 162.245 -87.667C162.371 -89.1951 162.994 -90.6732 164.115 -92.1044C165.238 -93.5371 166.655 -94.7569 168.368 -95.7685C170.081 -96.7793 171.828 -97.4256 173.614 -97.7089C175.399 -97.9914 176.989 -97.8201 178.387 -97.1909C179.228 -96.831 182.14 -94.5011 187.127 -90.2043C190.193 -87.5664 194.92 -83.3726 201.307 -77.6217C205.192 -74.1274 208.525 -71.1349 211.308 -68.6438L202.141 -63.2354ZM216.042 -82.9485C218.095 -80.6349 220.276 -79.7701 222.584 -80.3533L242.292 -85.3312L244.681 -75.8701L223.368 -70.4862C218.25 -69.1955 213.643 -70.3958 209.545 -74.092C205.871 -77.4142 203.292 -81.9996 201.816 -87.8501C200.314 -93.7957 200.39 -99.202 202.048 -104.073C203.876 -109.469 207.311 -112.803 212.359 -114.079L233.671 -119.461L235.997 -110.25L216.291 -105.272C213.912 -104.672 212.36 -102.94 211.641 -100.078C210.997 -97.5144 211.095 -94.5681 211.934 -91.24C212.8 -87.8178 214.168 -85.0546 216.042 -82.9485ZM285.119 -83.6535L284.573 -73.0645L256.692 -85.7801L256.159 -75.5192L246.231 -76.0339L248.556 -120.97L258.484 -120.457L257.918 -109.499L286.964 -119.324L286.408 -108.55L258.858 -98.4694L258.773 -96.7799L285.119 -83.6535ZM354.265 -82.0424L333.131 -93.2804C332.175 -93.7864 331.233 -93.8244 330.295 -93.3964C329.358 -92.9691 328.631 -92.2665 328.116 -91.2968C327.609 -90.3465 327.445 -89.3961 327.622 -88.4466C327.796 -87.4964 328.383 -86.7542 329.38 -86.2251L341.832 -79.6027C345.19 -77.8171 347.179 -75.1485 347.793 -71.5954C348.349 -68.408 347.747 -65.1562 345.982 -61.8407C344.23 -58.5466 341.873 -56.2273 338.906 -54.8853C335.618 -53.4085 332.295 -53.5617 328.935 -55.3501L306.273 -67.3997L310.768 -75.8524L332.001 -64.5633C332.911 -64.0776 333.824 -64.0725 334.742 -64.5434C335.66 -65.0146 336.378 -65.7387 336.896 -66.7133C337.414 -67.6889 337.606 -68.6496 337.471 -69.5986C337.335 -70.5454 336.791 -71.2739 335.837 -71.7818L323.353 -78.4199C319.971 -80.2178 317.958 -82.885 317.307 -86.4218C316.716 -89.5984 317.295 -92.8283 319.043 -96.1186C320.771 -99.3651 323.119 -101.642 326.096 -102.95C329.424 -104.399 332.768 -104.232 336.128 -102.446L358.724 -90.4316L354.265 -82.0424ZM398.115 -54.5486L390.468 -46.9357L363.285 -57.9605L362.084 -56.7667L372.801 -29.3489L365.285 -21.867L353.156 -50.0112L345.876 -42.7625L338.863 -49.8087L370.753 -81.5541L377.767 -74.5065L369.99 -66.7645L398.115 -54.5486ZM384.465 -9.55562C385.641 -7.34525 387.187 -5.77751 389.1 -4.84749C391.233 -3.81703 393.371 -3.8717 395.513 -5.01374L419.534 -17.8209L423.986 -9.47002L398.532 4.10063C393.945 6.549 389.338 6.7205 384.717 4.62239C380.541 2.73213 377.216 -0.529415 374.745 -5.16496C372.343 -9.67 371.534 -14.1079 372.318 -18.4765C373.185 -23.364 375.947 -27.0468 380.602 -29.5277L406.056 -43.0998L410.646 -34.489L386.627 -21.6823C384.549 -20.5763 383.357 -18.7998 383.049 -16.3535C382.769 -14.1171 383.241 -11.8522 384.465 -9.55562ZM410.16 18.3349C406.432 19.0697 403.447 20.4695 401.204 22.5375C398.623 24.9232 397.646 27.7056 398.274 30.8847L401.74 48.4788L392.166 50.3647L388.701 32.7709C387.604 27.2061 388.13 22.5232 390.282 18.7218C391.97 15.7383 394.598 13.3429 398.166 11.5392C400.507 10.3525 403.135 9.47258 406.046 8.89867C406.721 8.76576 407.197 8.67761 407.477 8.63699C407.755 8.59469 408.008 8.57628 408.234 8.58146L428.953 4.49964L430.877 14.2536L410.16 18.3349ZM414.907 64.2567C411.129 63.8646 407.861 64.3277 405.112 65.648C401.947 67.1705 400.197 69.5442 399.864 72.7679L398.016 90.6045L388.31 89.5984L390.158 71.7629C390.741 66.1212 392.62 61.7995 395.791 58.797C398.28 56.4377 401.495 54.9191 405.435 54.2434C408.022 53.7936 410.792 53.7244 413.744 54.0305C414.428 54.0995 414.909 54.1551 415.186 54.1977C415.466 54.2397 415.713 54.2942 415.929 54.3671L436.935 56.5425L435.91 66.4322L414.907 64.2567Z" fill="white"/>
<path d="M101.515 75.4003L101.685 79.6918L87.756 80.2445L87.5861 75.953L93.1065 75.735L92.9478 71.7143L87.4243 71.935L87.2555 67.6438L101.185 67.0878L101.355 71.3829L96.5167 71.5737L96.6759 75.5922L101.515 75.4003ZM100.961 99.1318L99.7267 91.9946L98.0128 92.2902L99.1356 98.7737L95.8644 99.3396L94.7434 92.8578L93.0306 93.1537L94.3043 100.501L90.7816 101.111L88.7792 89.5295L102.514 87.1532L104.481 98.5228L100.961 99.1318ZM96.7284 122.301L95.4149 118.048L97.1458 116.9L95.8398 112.663L93.7533 112.655L92.4829 108.531L107.316 109.33L108.552 113.343L96.7284 122.301ZM103.473 112.702L98.9711 112.681L99.7483 115.199L103.483 112.739L103.473 112.702ZM115.276 130.459L117.078 134.485L102.574 136.208L100.613 131.823L111.637 122.333L113.408 126.289L106.627 131.828L106.642 131.864L115.276 130.459ZM126.235 150.329L116.113 150.56L111.705 153.196L109.5 149.51L113.908 146.874L118.949 138.149L121.386 142.22L118.17 146.849L123.819 146.293L126.235 150.329ZM141.607 175.802L138.864 172.809C139.304 172.509 139.404 172.099 139.342 171.681C139.291 171.251 139.031 170.825 138.741 170.508C138.345 170.077 137.584 169.479 137.007 170.005C136.327 170.737 137.515 172.35 138.445 174.171C139.376 175.997 140.019 178.055 138.133 179.785C135.456 182.239 132.335 180.57 130.237 178.282C129.168 177.116 126.536 173.409 129.791 170.373L132.696 173.537C132.437 173.775 132.246 174.028 132.125 174.274C131.716 175.071 132.22 175.882 132.763 176.47C133.236 176.988 134.137 177.62 134.899 176.923C135.431 176.434 135.165 175.856 134.047 173.624C133.014 171.575 131.758 169.309 133.83 167.408C136.205 165.229 139.089 166.323 141.027 168.438C143.074 170.668 144.033 173.418 141.607 175.802ZM156.15 189.517C153.963 192.092 151.211 191.828 148.773 189.754L146.838 188.11L144.107 191.322L140.834 188.54L149.867 177.92L155.339 182.574C158.226 185.029 157.441 188 156.15 189.517ZM152.281 184.663L150.824 183.423L148.99 185.581L150.254 186.657C151.101 187.377 152.044 188.077 152.954 187.005C153.778 186.04 153.085 185.347 152.281 184.663ZM172.21 203.056C169.906 206.634 165.877 207.66 162.316 205.366C158.753 203.074 158.022 198.98 160.325 195.401C162.632 191.824 166.661 190.796 170.222 193.088C173.785 195.383 174.516 199.477 172.21 203.056ZM168.341 196.011C167.421 195.419 165.619 195.118 163.937 197.728C162.256 200.338 163.277 201.853 164.197 202.446C165.115 203.038 166.919 203.34 168.601 200.729C170.281 198.12 169.261 196.603 168.341 196.011ZM191.985 209.516C191.375 210.826 190.128 211.925 188.615 211.799C189.486 212.701 189.594 214.176 189.002 215.816C188.765 216.461 188.08 217.972 188.162 218.721L184.27 216.904C184.372 216.176 184.607 215.488 184.86 214.808C185.315 213.557 185.795 212.252 184.256 211.532L182.187 210.566L180.13 214.971L176.239 213.154L182.135 200.525L189.548 203.983C191.759 205.016 193.1 207.128 191.985 209.516ZM186.445 206.198L184.623 205.347L183.451 207.859L185.484 208.81C186.21 209.148 187.26 209.486 187.787 208.355C188.159 207.558 187.931 206.892 186.445 206.198ZM209.539 215.148L205.826 213.944L202.63 223.805L198.543 222.483L201.741 212.62L198.025 211.414L199.126 208.016L210.641 211.748L209.539 215.148ZM219.704 228.437C218.152 228.133 213.834 226.714 214.647 222.336L218.864 223.158C218.796 223.504 218.796 223.823 218.842 224.09C218.987 224.973 219.874 225.326 220.661 225.48C221.35 225.616 222.449 225.59 222.649 224.575C222.786 223.866 222.229 223.557 220.002 222.426C217.956 221.391 215.601 220.313 216.14 217.552C216.757 214.391 219.725 213.557 222.543 214.107C225.514 214.689 227.919 216.333 227.382 219.688L223.394 218.911C223.573 218.408 223.411 218.019 223.11 217.72C222.815 217.404 222.354 217.215 221.932 217.134C221.358 217.02 220.389 216.991 220.238 217.755C220.125 218.75 222.039 219.342 223.87 220.256C225.699 221.172 227.44 222.446 226.951 224.958C226.254 228.522 222.752 229.033 219.704 228.437ZM256.13 231.148L251.733 223.601L251.695 223.601L251.816 231.218L247.755 231.281L247.533 217.341L251.925 217.271L256.106 224.665L256.145 224.665L256.025 217.205L260.087 217.14L260.31 231.082L256.13 231.148ZM275.942 229.676C271.733 230.316 269.37 228.799 268.79 224.978L267.503 216.526L271.749 215.881L272.891 223.388C273.104 224.797 273.372 226.552 275.438 226.239C277.445 225.933 277.178 224.177 276.962 222.768L275.82 215.259L280.066 214.613L281.354 223.066C281.936 226.887 280.149 229.036 275.942 229.676ZM298.502 224.25L294.375 225.44L291.507 215.476L287.753 216.557L286.766 213.123L298.397 209.775L299.387 213.207L295.633 214.288L298.502 224.25ZM318.424 216.802C317.952 216.241 317.593 215.608 317.255 214.968C316.622 213.796 315.966 212.568 314.406 213.237L312.308 214.142L314.23 218.609L310.284 220.305L304.775 207.502L312.287 204.268C314.531 203.302 317.001 203.707 318.042 206.128C318.613 207.454 318.605 209.117 317.502 210.163C318.757 210.113 319.931 211.012 320.759 212.547C321.085 213.151 321.758 214.666 322.37 215.104L318.424 216.802ZM314.381 208.489C314.035 207.682 313.385 207.408 311.878 208.057L310.031 208.85L311.128 211.397L313.188 210.511C313.924 210.194 314.874 209.636 314.381 208.489ZM329.538 211.274L322.714 199.117L326.46 197.015L333.286 209.172L329.538 211.274ZM347.304 200.083L343.791 202.555L337.826 194.074L334.633 196.319L332.575 193.397L342.479 186.433L344.536 189.357L341.342 191.603L347.304 200.083ZM357.091 192.432L347.962 181.896L351.206 179.084L360.337 189.62L357.091 192.432ZM371.862 178.757C368.986 181.866 364.829 181.876 361.705 178.984C358.582 176.095 358.27 171.947 361.147 168.839C364.023 165.729 368.183 165.722 371.304 168.611C374.427 171.503 374.74 175.648 371.862 178.757ZM368.388 171.764C366.11 169.656 364.438 170.397 363.698 171.2C362.955 172.001 362.343 173.724 364.622 175.834C366.899 177.942 368.571 177.2 369.314 176.397C370.057 175.595 370.666 173.872 368.388 171.764ZM386.772 159.518L378.083 158.657L378.061 158.69L384.3 163.053L381.971 166.381L370.549 158.391L373.068 154.791L381.507 155.74L381.53 155.707L375.418 151.432L377.746 148.106L389.166 156.095L386.772 159.518Z" fill="white"/>
<path d="M354.054 123.211C348.949 114.714 350.778 106.559 355.545 98.0078C357.444 94.6034 366.352 68.7251 366.602 67.7919C367.837 63.1822 370.585 54.0325 371.089 49.5702C373.236 30.5634 369.737 25.2385 362.064 11.9495C354.822 -0.594069 342.844 -10.9355 330.891 -19.2949C327.291 -21.8127 323.449 -23.9828 319.687 -26.2552C307.7 -33.4924 293.525 -38.0302 282.966 -40.9207L282.958 -40.9228C272.369 -43.6988 257.825 -46.8565 243.825 -46.5824C239.43 -46.4955 235.018 -46.5374 230.641 -46.1567C216.11 -44.8939 200.566 -41.9269 188.022 -34.6848C174.734 -27.0126 169.04 -24.1507 161.396 -6.61689C159.602 -2.50022 150.696 39.2053 150.638 43.103C150.493 52.8923 147.998 60.8691 139.328 65.6757C136.693 67.1363 136.17 69.0578 136.544 71.7433C137.176 76.2741 135.664 85.5723 137.06 89.9244C138.573 94.6467 143.264 100.043 145.201 102.201C146.05 103.145 149.437 106.352 150.284 107.032C151.644 108.121 163.918 112.948 165.714 113.429C167.371 113.873 185.03 120.698 182.708 129.365C181.244 134.83 180.13 135.718 179.849 141.466C179.743 143.626 179.78 153.673 179.522 154.096C179.342 154.387 178.274 158.303 178.174 158.63C177.866 159.629 177.614 160.662 177.649 161.707C177.683 162.753 178.032 163.821 178.781 164.551C179.673 165.421 181.734 165.897 182.963 166.109C183.446 166.194 183.959 166.272 184.416 166.095C184.694 165.988 186.429 160.292 187.434 157.567C187.9 156.302 188.049 156.916 188.112 156.792C188.116 156.85 188.548 156.573 188.33 157.943C187.899 160.652 186.664 165.95 186.729 166.047C186.926 166.343 187.287 166.475 187.624 166.589C188.403 166.852 189.73 167.252 190.535 167.084C190.886 167.009 191.216 166.855 191.568 166.775C192.338 166.602 192.626 166.668 193.417 166.694C193.66 166.703 193.913 166.691 194.129 166.579C194.369 166.453 194.532 166.218 194.653 165.976C194.878 165.522 195.141 165.051 195.121 164.544C195.113 164.351 196.09 159.718 196.813 157.226C197.243 155.74 197.573 155.918 197.578 155.759C197.582 156.016 197.751 155.985 197.542 157.466C197.161 160.155 196.291 165.008 196.288 165.641C196.288 165.891 196.124 166.132 196.187 166.376C196.277 166.724 196.646 166.95 197.009 167.007C197.372 167.064 197.739 166.993 198.103 166.951C199.023 166.845 199.457 166.801 200.343 167.083C201.203 167.358 201.574 167.679 202.447 167.471C203.256 167.278 203.816 166.537 204.045 165.757C204.128 165.476 205.087 161.487 205.788 159.404C206.292 157.907 206.609 158.15 206.615 157.938C206.695 157.947 206.565 158.662 206.546 158.792C206.42 159.695 205.239 166.858 205.759 167.609C206.276 168.354 207.228 168.633 208.106 168.86C209.311 169.172 209.488 169.21 210.692 169.522C211.053 169.616 211.421 169.71 211.794 169.679C212.152 169.65 212.493 169.507 212.801 169.322C213.608 168.836 215.489 163.39 216.581 160.71C217.083 159.481 217.211 160.245 217.362 159.83C217.299 160.098 217.685 159.751 217.424 161.118C216.967 163.508 215.781 168.095 215.689 168.568C215.619 168.935 215.56 169.343 215.766 169.661C215.9 169.865 216.122 169.998 216.347 170.102C218.045 170.886 220.619 170.586 222.337 171.326C223.045 171.631 223.695 172.137 224.464 172.194C225.002 172.235 226.494 167.2 227.463 164.396C227.971 162.924 228.293 162.88 228.346 162.755C228.879 162.475 228.242 164.295 228.136 164.758C228.089 165.15 226.324 172.535 227.065 172.891C227.759 173.226 228.575 173.113 229.341 173.203C231.199 173.421 233.278 174.968 235.141 175.138C235.387 175.16 235.648 175.157 235.865 175.046C236.202 174.874 236.354 174.491 236.477 174.138C236.633 173.688 237.789 169.3 238.584 167.014C239.055 165.664 239.316 166.004 239.399 165.735C239.32 166.178 239.547 165.781 239.362 167.132C238.972 169.992 238.15 175.418 238.602 176.235C238.776 176.549 238.999 176.844 239.295 177.048C239.602 177.261 239.969 177.364 240.329 177.463C241.527 177.795 241.7 177.851 242.898 178.182C243.772 178.425 244.737 178.66 245.556 178.273C246.065 178.032 247.701 173.08 248.725 170.592C249.363 169.039 249.622 169.458 249.651 169.47C249.555 169.648 249.71 169.305 249.413 170.777C248.968 172.968 248.038 177.234 247.967 177.526C247.775 178.316 247.89 179.238 248.494 179.809C249.146 180.426 249.627 180.333 250.51 180.525C251.418 180.724 251.772 180.979 252.516 181.531C252.81 181.749 253.092 181.994 253.435 182.126C253.78 182.259 254.212 182.248 254.462 181.991C254.639 181.811 254.618 181.521 254.742 181.304C255.032 180.8 256.67 176.08 257.64 173.661C258.314 171.983 258.414 172.355 258.567 172.101C258.482 172.258 258.789 172.275 258.358 174.034C257.767 176.447 256.397 180.786 256.303 180.938C256.031 181.366 256.023 181.906 255.992 182.411C255.975 182.682 255.999 182.966 256.144 183.196C256.275 183.401 256.488 183.537 256.703 183.652C257.401 184.024 257.684 184.111 258.264 184.647C258.528 184.891 258.737 185.19 259.004 185.43C259.617 185.979 260.966 186.295 261.772 186.457C262.121 186.527 262.5 186.593 262.818 186.435C262.921 186.385 264.417 181.602 265.396 179.046C265.919 177.68 266.214 177.778 266.248 177.728C266.24 177.872 266.69 177.602 266.447 179.01C265.956 181.871 264.613 187.406 264.797 187.633C265.105 188.015 265.587 188.204 266.048 188.372C267.219 188.802 269.242 189.421 270.45 189.114C271.463 188.856 272.3 188.106 272.853 187.217C273.404 186.329 273.703 185.309 273.937 184.29C274.013 183.957 275.044 180.03 275.036 179.689C275.024 179.194 280.078 170.511 281.068 168.587C283.699 163.469 283.177 162.143 284.641 156.678C286.964 148.011 305.328 150.839 307.326 151.374C309.183 151.871 322.166 153.812 323.888 153.549C324.962 153.384 329.498 152.3 330.705 151.906C333.462 151.007 339.896 148.727 343.895 145.346C347.385 142.395 350.619 133.466 353.432 129.858C355.098 127.719 355.606 125.794 354.054 123.211ZM251.932 134.207C251.296 135.599 249.374 137.06 247.886 137.256C245.726 137.539 243.638 136.447 242.708 133.997C242.052 132.274 241.134 130.653 240.389 128.962C238.682 125.096 238.173 124.986 234.891 127.489C233.421 128.61 231.793 129.524 230.364 130.69C228.334 132.346 225.979 132.247 224.25 130.923C223.059 130.01 222.126 127.783 222.272 126.258C223.409 114.36 228.168 103.932 236.393 95.3134C239.204 92.3679 241.669 88.2633 246.469 87.6211C247.16 87.528 247.852 87.5283 248.521 87.6109C249.142 87.8728 249.742 88.2198 250.295 88.6463C253.624 91.2107 254.585 97.2852 255.255 100.043C258.069 111.621 256.896 123.333 251.932 134.207ZM256.451 85.6512C256.857 84.137 262.086 81.3477 266.428 84.3251C267.965 85.3798 274.037 86.9101 275.36 87.0971C277.547 87.4072 280.359 87.1143 282.239 86.4633C289.502 83.9489 289.42 82.7062 296.24 79.2179C304.574 74.9548 312.331 69.5769 320.513 64.9946C323.969 63.0583 327.78 61.579 331.606 60.5341C334.357 59.7818 343.005 61.2874 345.889 61.5059C349.17 61.754 351.42 63.8691 350.42 67.0626C349.257 70.7682 347.993 74.5563 346.04 77.8781C340.246 87.7387 334.492 99.8785 325.936 107.524C325.056 108.311 321.006 110.554 319.846 110.909C313.924 112.726 308.558 114.495 302.497 114.408C301.67 114.396 297.819 110.689 296.889 109.993C289.571 104.524 284.784 102.858 276.239 99.7461C274.763 99.209 262.057 91.6068 256.451 85.6512ZM242.634 81.949C234.801 84.3038 219.998 84.5348 218.449 84.2614C209.494 82.684 204.516 81.7334 195.444 82.8113C194.29 82.948 189.103 84.2342 188.38 83.8305C183.087 80.8755 179.324 76.6603 175.104 72.1258C174.277 71.2378 171.893 67.2705 171.523 66.149C167.936 55.2498 169.023 41.8598 168.935 30.4228C168.906 26.5701 169.704 22.6572 170.55 18.8667C171.28 15.6007 174.287 14.8944 177.252 16.3199C179.859 17.5727 188.101 20.5926 190.109 22.6202C192.898 25.4375 195.459 28.624 197.485 32.0295C202.279 40.0885 206.307 48.6244 211.394 56.4835C215.556 62.9145 214.863 63.9496 219.896 69.7588C221.199 71.2625 223.487 72.9217 225.536 73.7468C226.776 74.2466 232.799 75.9571 234.658 75.8123C239.908 75.4051 242.994 80.6054 242.634 81.949Z" fill="white"/>
<path d="M399.212 96.0496L400.296 92.0039L398.848 91.6158L399.046 90.8773L402.782 91.8785L402.584 92.6169L401.136 92.2289L400.052 96.2746L399.212 96.0496Z" fill="white"/>
<path d="M406.344 97.9604L407.333 94.2669L404.88 97.5682L404.522 97.4724L404.042 93.385L403.052 97.0785L402.213 96.8535L403.495 92.0693L404.679 92.3866L405.103 96.0215L407.281 93.0839L408.464 93.4009L407.182 98.1851L406.344 97.9604Z" fill="white"/>
</g>
<defs>
<clipPath id="clip0_87_414">
<rect width="483" height="314" fill="white"/>
</clipPath>
</defs>
</svg>
