<svg width="200" height="24" viewBox="0 0 200 24" fill="none" xmlns="http://www.w3.org/2000/svg">
<g clip-path="url(#clip0_530_5535)">
<path d="M144 0C137.373 0 132 5.37321 132 12C132 18.6268 137.373 24 144 24C150.627 24 156 18.6268 156 12C156 5.37321 150.627 0 144 0ZM149.767 9.04554C149.775 9.17143 149.775 9.30268 149.775 9.43125C149.775 13.3634 146.78 17.8929 141.308 17.8929C139.621 17.8929 138.056 17.4027 136.738 16.5589C136.979 16.5857 137.21 16.5964 137.456 16.5964C138.849 16.5964 140.129 16.125 141.15 15.3268C139.843 15.3 138.745 14.4429 138.37 13.2643C138.828 13.3313 139.24 13.3313 139.712 13.2107C139.039 13.074 138.434 12.7084 138 12.1762C137.565 11.644 137.329 10.9779 137.33 10.2911V10.2536C137.724 10.4759 138.188 10.6125 138.672 10.6313C138.265 10.3596 137.931 9.99164 137.699 9.5599C137.468 9.12817 137.347 8.64603 137.346 8.15625C137.346 7.60179 137.491 7.09554 137.751 6.65625C138.498 7.5759 139.43 8.32806 140.487 8.86384C141.544 9.39961 142.701 9.70702 143.885 9.76607C143.464 7.74375 144.975 6.10714 146.791 6.10714C147.648 6.10714 148.42 6.46607 148.963 7.04464C149.636 6.91875 150.279 6.66696 150.852 6.32946C150.629 7.01786 150.163 7.59911 149.545 7.96607C150.145 7.90179 150.723 7.73571 151.259 7.50268C150.854 8.09732 150.348 8.625 149.767 9.04554Z" fill="white"/>
</g>
<g clip-path="url(#clip1_530_5535)">
<path d="M24 12C24 5.37188 18.6281 0 12 0C5.37188 0 0 5.37188 0 12C0 18.6281 5.37188 24 12 24C12.0703 24 12.1406 24 12.2109 23.9953V14.6578H9.63281V11.6531H12.2109V9.44062C12.2109 6.87656 13.7766 5.47969 16.0641 5.47969C17.1609 5.47969 18.1031 5.55938 18.375 5.59688V8.27813H16.8C15.5578 8.27813 15.3141 8.86875 15.3141 9.73594V11.6484H18.2906L17.9016 14.6531H15.3141V23.5359C20.3297 22.0969 24 17.4797 24 12Z" fill="white"/>
</g>
<g clip-path="url(#clip2_530_5535)">
<path d="M58.2969 12C58.2969 13.2686 57.2686 14.2969 56 14.2969C54.7314 14.2969 53.7031 13.2686 53.7031 12C53.7031 10.7314 54.7314 9.70312 56 9.70312C57.2686 9.70312 58.2969 10.7314 58.2969 12Z" fill="white"/>
<path d="M61.3716 7.93573C61.2612 7.63654 61.085 7.36572 60.8561 7.14343C60.6339 6.91455 60.3632 6.7384 60.0638 6.62799C59.821 6.53369 59.4563 6.42145 58.7845 6.39087C58.0577 6.35773 57.8398 6.35059 56 6.35059C54.16 6.35059 53.9421 6.35754 53.2155 6.39069C52.5437 6.42145 52.1788 6.53369 51.9362 6.62799C51.6368 6.7384 51.366 6.91455 51.1439 7.14343C50.915 7.36572 50.7388 7.63635 50.6282 7.93573C50.5339 8.17853 50.4217 8.54346 50.3911 9.21527C50.358 9.94183 50.3508 10.1597 50.3508 11.9998C50.3508 13.8396 50.358 14.0575 50.3911 14.7842C50.4217 15.4561 50.5339 15.8208 50.6282 16.0636C50.7388 16.363 50.9148 16.6336 51.1437 16.8559C51.366 17.0848 51.6366 17.2609 51.936 17.3713C52.1788 17.4658 52.5437 17.5781 53.2155 17.6086C53.9421 17.6418 54.1598 17.6487 55.9998 17.6487C57.84 17.6487 58.0579 17.6418 58.7843 17.6086C59.4561 17.5781 59.821 17.4658 60.0638 17.3713C60.6648 17.1395 61.1398 16.6646 61.3716 16.0636C61.4659 15.8208 61.5781 15.4561 61.6089 14.7842C61.642 14.0575 61.649 13.8396 61.649 11.9998C61.649 10.1597 61.642 9.94183 61.6089 9.21527C61.5783 8.54346 61.4661 8.17853 61.3716 7.93573ZM56 15.5379C54.0457 15.5379 52.4615 13.9539 52.4615 11.9996C52.4615 10.0453 54.0457 8.46124 56 8.46124C57.9541 8.46124 59.5383 10.0453 59.5383 11.9996C59.5383 13.9539 57.9541 15.5379 56 15.5379ZM59.6782 9.14825C59.2216 9.14825 58.8513 8.77802 58.8513 8.32135C58.8513 7.86469 59.2216 7.49445 59.6782 7.49445C60.1349 7.49445 60.5051 7.86469 60.5051 8.32135C60.5049 8.77802 60.1349 9.14825 59.6782 9.14825Z" fill="white"/>
<path d="M56 0C49.3736 0 44 5.3736 44 12C44 18.6264 49.3736 24 56 24C62.6264 24 68 18.6264 68 12C68 5.3736 62.6264 0 56 0ZM62.8491 14.8409C62.8157 15.5744 62.6991 16.0752 62.5288 16.5135C62.1708 17.4391 61.4391 18.1708 60.5135 18.5288C60.0754 18.6991 59.5744 18.8156 58.8411 18.8491C58.1063 18.8826 57.8715 18.8906 56.0002 18.8906C54.1287 18.8906 53.8941 18.8826 53.1591 18.8491C52.4258 18.8156 51.9248 18.6991 51.4866 18.5288C51.0267 18.3558 50.6103 18.0846 50.2661 17.7339C49.9156 17.3899 49.6444 16.9733 49.4714 16.5135C49.3011 16.0754 49.1844 15.5744 49.1511 14.8411C49.1172 14.1061 49.1094 13.8713 49.1094 12C49.1094 10.1287 49.1172 9.89392 49.1509 9.15912C49.1843 8.4256 49.3007 7.9248 49.471 7.48645C49.644 7.02667 49.9154 6.61011 50.2661 6.26605C50.6101 5.91541 51.0267 5.64423 51.4865 5.47119C51.9248 5.3009 52.4256 5.18445 53.1591 5.15094C53.8939 5.11743 54.1287 5.10938 56 5.10938C57.8713 5.10938 58.1061 5.11743 58.8409 5.15112C59.5744 5.18445 60.0752 5.3009 60.5135 5.47101C60.9733 5.64404 61.3899 5.91541 61.7341 6.26605C62.0846 6.61029 62.356 7.02667 62.5288 7.48645C62.6993 7.9248 62.8157 8.4256 62.8492 9.15912C62.8828 9.89392 62.8906 10.1287 62.8906 12C62.8906 13.8713 62.8828 14.1061 62.8491 14.8409Z" fill="white"/>
</g>
<g clip-path="url(#clip3_530_5535)">
<path d="M98.5053 14.2483L102.409 12.0001L98.5053 9.75195V14.2483Z" fill="white"/>
<path d="M100 0C93.3736 0 88 5.3736 88 12C88 18.6264 93.3736 24 100 24C106.626 24 112 18.6264 112 12C112 5.3736 106.626 0 100 0ZM107.498 12.0123C107.498 12.0123 107.498 14.4459 107.189 15.6194C107.016 16.2618 106.51 16.7682 105.868 16.9411C104.694 17.25 100 17.25 100 17.25C100 17.25 95.3182 17.25 94.1324 16.9288C93.4901 16.756 92.9836 16.2493 92.8105 15.607C92.5016 14.4459 92.5016 12 92.5016 12C92.5016 12 92.5016 9.56653 92.8105 8.39301C92.9834 7.75067 93.5023 7.23175 94.1324 7.0589C95.3059 6.75 100 6.75 100 6.75C100 6.75 104.694 6.75 105.868 7.07117C106.51 7.24402 107.016 7.75067 107.189 8.39301C107.511 9.56653 107.498 12.0123 107.498 12.0123Z" fill="white"/>
</g>
<g clip-path="url(#clip4_530_5535)">
<path fill-rule="evenodd" clip-rule="evenodd" d="M188 24C194.627 24 200 18.6274 200 12C200 5.37258 194.627 0 188 0C181.373 0 176 5.37258 176 12C176 18.6274 181.373 24 188 24ZM190.228 5.00386C189.762 5.00445 189.296 5.00504 188.828 5.01181L188.829 5.01225C188.817 6.51602 188.817 8.02015 188.818 9.52615C188.819 10.3679 188.819 11.2102 188.817 12.0533C188.815 12.336 188.816 12.6184 188.816 12.9007C188.817 13.6602 188.817 14.4187 188.773 15.1794C188.766 15.3905 188.653 15.5761 188.543 15.7564C188.534 15.7708 188.526 15.7851 188.517 15.7994C188.154 16.3529 187.487 16.7309 186.791 16.7379C185.74 16.8249 184.756 16.0203 184.608 15.063C184.607 15.0161 184.605 14.9689 184.604 14.9215C184.593 14.6515 184.583 14.3762 184.693 14.1245C184.849 13.7062 185.148 13.3476 185.543 13.1038C186.084 12.7525 186.807 12.7 187.426 12.8872C187.426 12.5182 187.432 12.1494 187.439 11.7805C187.448 11.2857 187.457 10.7909 187.45 10.2958C186.096 10.0586 184.649 10.4594 183.617 11.3008C182.706 12.0231 182.119 13.085 182.007 14.195C181.996 14.4843 181.998 14.7739 182.014 15.063C182.143 16.4281 183.03 17.7 184.289 18.3948C185.049 18.8139 185.94 19.0414 186.831 18.9937C188.285 18.971 189.701 18.2416 190.516 17.1229C191.023 16.4509 191.311 15.6393 191.359 14.8237C191.372 13.7034 191.371 12.581 191.37 11.4572C191.37 10.8782 191.369 10.2988 191.371 9.71913C191.695 9.91733 192.026 10.1111 192.381 10.2617C193.197 10.6239 194.101 10.7989 195 10.8265V8.47744C194.04 8.37724 193.054 8.08104 192.357 7.43394C191.658 6.8026 191.315 5.89298 191.266 5C190.92 5.00299 190.574 5.00343 190.228 5.00386Z" fill="white"/>
</g>
<defs>
<clipPath id="clip0_530_5535">
<rect width="24" height="24" fill="white" transform="translate(132)"/>
</clipPath>
<clipPath id="clip1_530_5535">
<rect width="24" height="24" fill="white"/>
</clipPath>
<clipPath id="clip2_530_5535">
<rect width="24" height="24" fill="white" transform="translate(44)"/>
</clipPath>
<clipPath id="clip3_530_5535">
<rect width="24" height="24" fill="white" transform="translate(88)"/>
</clipPath>
<clipPath id="clip4_530_5535">
<rect width="24" height="24" fill="white" transform="translate(176)"/>
</clipPath>
</defs>
</svg>
